<svg id="visual" viewBox="0 0 900 600" width="900" height="600" xmlns="http://www.w3.org/2000/svg" xmlns:xlink="http://www.w3.org/1999/xlink" version="1.1"><path d="M0 55L15 51C30 47 60 39 90 33C120 27 150 23 180 23C210 23 240 27 270 40C300 53 330 75 360 76C390 77 420 57 450 45C480 33 510 29 540 30C570 31 600 37 630 41C660 45 690 47 720 44C750 41 780 33 810 30C840 27 870 29 885 30L900 31L900 0L885 0C870 0 840 0 810 0C780 0 750 0 720 0C690 0 660 0 630 0C600 0 570 0 540 0C510 0 480 0 450 0C420 0 390 0 360 0C330 0 300 0 270 0C240 0 210 0 180 0C150 0 120 0 90 0C60 0 30 0 15 0L0 0Z" fill="#4775ce"></path><path d="M0 73L15 71C30 69 60 65 90 64C120 63 150 65 180 68C210 71 240 75 270 82C300 89 330 99 360 105C390 111 420 113 450 102C480 91 510 67 540 66C570 65 600 87 630 92C660 97 690 85 720 81C750 77 780 81 810 77C840 73 870 61 885 55L900 49L900 29L885 28C870 27 840 25 810 28C780 31 750 39 720 42C690 45 660 43 630 39C600 35 570 29 540 28C510 27 480 31 450 43C420 55 390 75 360 74C330 73 300 51 270 38C240 25 210 21 180 21C150 21 120 25 90 31C60 37 30 45 15 49L0 53Z" fill="#3b6bc8"></path><path d="M0 79L15 80C30 81 60 83 90 84C120 85 150 85 180 93C210 101 240 117 270 125C300 133 330 133 360 134C390 135 420 137 450 125C480 113 510 87 540 83C570 79 600 97 630 101C660 105 690 95 720 91C750 87 780 89 810 88C840 87 870 83 885 81L900 79L900 47L885 53C870 59 840 71 810 75C780 79 750 75 720 79C690 83 660 95 630 90C600 85 570 63 540 64C510 65 480 89 450 100C420 111 390 109 360 103C330 97 300 87 270 80C240 73 210 69 180 66C150 63 120 61 90 62C60 63 30 67 15 69L0 71Z" fill="#2e61c1"></path><path d="M0 109L15 110C30 111 60 113 90 119C120 125 150 135 180 147C210 159 240 173 270 179C300 185 330 183 360 180C390 177 420 173 450 164C480 155 510 141 540 136C570 131 600 135 630 138C660 141 690 143 720 142C750 141 780 137 810 137C840 137 870 141 885 143L900 145L900 77L885 79C870 81 840 85 810 86C780 87 750 85 720 89C690 93 660 103 630 99C600 95 570 77 540 81C510 85 480 111 450 123C420 135 390 133 360 132C330 131 300 131 270 123C240 115 210 99 180 91C150 83 120 83 90 82C60 81 30 79 15 78L0 77Z" fill="#1f57bb"></path><path d="M0 313L15 305C30 297 60 281 90 286C120 291 150 317 180 328C210 339 240 335 270 339C300 343 330 355 360 351C390 347 420 327 450 328C480 329 510 351 540 352C570 353 600 333 630 323C660 313 690 313 720 309C750 305 780 297 810 280C840 263 870 237 885 224L900 211L900 143L885 141C870 139 840 135 810 135C780 135 750 139 720 140C690 141 660 139 630 136C600 133 570 129 540 134C510 139 480 153 450 162C420 171 390 175 360 178C330 181 300 183 270 177C240 171 210 157 180 145C150 133 120 123 90 117C60 111 30 109 15 108L0 107Z" fill="#084db4"></path><path d="M0 361L15 357C30 353 60 345 90 350C120 355 150 373 180 386C210 399 240 407 270 419C300 431 330 447 360 436C390 425 420 387 450 378C480 369 510 389 540 391C570 393 600 377 630 372C660 367 690 373 720 375C750 377 780 375 810 357C840 339 870 305 885 288L900 271L900 209L885 222C870 235 840 261 810 278C780 295 750 303 720 307C690 311 660 311 630 321C600 331 570 351 540 350C510 349 480 327 450 326C420 325 390 345 360 349C330 353 300 341 270 337C240 333 210 337 180 326C150 315 120 289 90 284C60 279 30 295 15 303L0 311Z" fill="#0448a8"></path><path d="M0 397L15 405C30 413 60 429 90 450C120 471 150 497 180 503C210 509 240 495 270 493C300 491 330 501 360 496C390 491 420 471 450 467C480 463 510 475 540 485C570 495 600 503 630 505C660 507 690 503 720 492C750 481 780 463 810 445C840 427 870 409 885 400L900 391L900 269L885 286C870 303 840 337 810 355C780 373 750 375 720 373C690 371 660 365 630 370C600 375 570 391 540 389C510 387 480 367 450 376C420 385 390 423 360 434C330 445 300 429 270 417C240 405 210 397 180 384C150 371 120 353 90 348C60 343 30 351 15 355L0 359Z" fill="#01439c"></path><path d="M0 535L15 536C30 537 60 539 90 543C120 547 150 553 180 553C210 553 240 547 270 548C300 549 330 557 360 562C390 567 420 569 450 568C480 567 510 563 540 561C570 559 600 559 630 563C660 567 690 575 720 576C750 577 780 571 810 570C840 569 870 573 885 575L900 577L900 389L885 398C870 407 840 425 810 443C780 461 750 479 720 490C690 501 660 505 630 503C600 501 570 493 540 483C510 473 480 461 450 465C420 469 390 489 360 494C330 499 300 489 270 491C240 493 210 507 180 501C150 495 120 469 90 448C60 427 30 411 15 403L0 395Z" fill="#003f91"></path><path d="M0 601L15 601C30 601 60 601 90 601C120 601 150 601 180 601C210 601 240 601 270 601C300 601 330 601 360 601C390 601 420 601 450 601C480 601 510 601 540 601C570 601 600 601 630 601C660 601 690 601 720 601C750 601 780 601 810 601C840 601 870 601 885 601L900 601L900 575L885 573C870 571 840 567 810 568C780 569 750 575 720 574C690 573 660 565 630 561C600 557 570 557 540 559C510 561 480 565 450 566C420 567 390 565 360 560C330 555 300 547 270 546C240 545 210 551 180 551C150 551 120 545 90 541C60 537 30 535 15 534L0 533Z" fill="#003a85"></path></svg>